<?xml version="1.0" encoding="UTF-8" standalone="no"?>
<svg
   xmlns:dc="http://purl.org/dc/elements/1.1/"
   xmlns:cc="http://creativecommons.org/ns#"
   xmlns:rdf="http://www.w3.org/1999/02/22-rdf-syntax-ns#"
   xmlns:svg="http://www.w3.org/2000/svg"
   xmlns="http://www.w3.org/2000/svg"
   xmlns:sodipodi="http://sodipodi.sourceforge.net/DTD/sodipodi-0.dtd"
   xmlns:inkscape="http://www.inkscape.org/namespaces/inkscape"
   width="750"
   height="500"
   version="1.1"
   viewBox="0 0 750.00001 500.00001"
   id="svg56"
   sodipodi:docname="ai-performance.svg"
   inkscape:version="0.92.4 5da689c313, 2019-01-14">
  <metadata
     id="metadata60">
    <rdf:RDF>
      <cc:Work
         rdf:about="">
        <dc:format>image/svg+xml</dc:format>
        <dc:type
           rdf:resource="http://purl.org/dc/dcmitype/StillImage" />
      </cc:Work>
    </rdf:RDF>
  </metadata>
  <sodipodi:namedview
     pagecolor="#ffffff"
     bordercolor="#666666"
     borderopacity="1"
     objecttolerance="10"
     gridtolerance="10"
     guidetolerance="10"
     inkscape:pageopacity="0"
     inkscape:pageshadow="2"
     inkscape:window-width="1294"
     inkscape:window-height="1016"
     id="namedview58"
     showgrid="false"
     inkscape:zoom="0.88"
     inkscape:cx="306.69735"
     inkscape:cy="226.59121"
     inkscape:window-x="626"
     inkscape:window-y="27"
     inkscape:window-maximized="0"
     inkscape:current-layer="svg56" />
  <defs
     id="defs20">
    <marker
       id="l"
       overflow="visible"
       orient="auto">
      <path
         transform="scale(.2) translate(7.4 1)"
         d="m-2.5-1c0 2.76-2.24 5-5 5s-5-2.24-5-5 2.24-5 5-5 5 2.24 5 5z"
         fill="#555"
         fill-rule="evenodd"
         stroke="#555"
         stroke-width="1pt"
         id="path2" />
    </marker>
    <marker
       id="k"
       overflow="visible"
       orient="auto">
      <path
         transform="scale(.2) translate(7.4 1)"
         d="m-2.5-1c0 2.76-2.24 5-5 5s-5-2.24-5-5 2.24-5 5-5 5 2.24 5 5z"
         fill="#555"
         fill-rule="evenodd"
         stroke="#555"
         stroke-width="1pt"
         id="path5" />
    </marker>
    <marker
       id="j"
       overflow="visible"
       orient="auto">
      <path
         transform="scale(.4) translate(7.4 1)"
         d="m-2.5-1c0 2.76-2.24 5-5 5s-5-2.24-5-5 2.24-5 5-5 5 2.24 5 5z"
         fill="#555"
         fill-rule="evenodd"
         stroke="#555"
         stroke-width="1pt"
         id="path8" />
    </marker>
    <marker
       id="i"
       overflow="visible"
       orient="auto">
      <path
         transform="scale(.4) translate(7.4 1)"
         d="m-2.5-1c0 2.76-2.24 5-5 5s-5-2.24-5-5 2.24-5 5-5 5 2.24 5 5z"
         fill="#555"
         fill-rule="evenodd"
         stroke="#555"
         stroke-width="1pt"
         id="path11" />
    </marker>
    <marker
       id="g"
       overflow="visible"
       orient="auto">
      <path
         transform="scale(.4) translate(7.4 1)"
         d="m-2.5-1c0 2.76-2.24 5-5 5s-5-2.24-5-5 2.24-5 5-5 5 2.24 5 5z"
         fill="#555"
         fill-rule="evenodd"
         stroke="#555"
         stroke-width="1pt"
         id="path14" />
    </marker>
    <marker
       id="h"
       overflow="visible"
       orient="auto">
      <path
         transform="scale(.2) translate(7.4 1)"
         d="m-2.5-1c0 2.76-2.24 5-5 5s-5-2.24-5-5 2.24-5 5-5 5 2.24 5 5z"
         fill="#555"
         fill-rule="evenodd"
         stroke="#555"
         stroke-width="1pt"
         id="path17" />
    </marker>
  </defs>
  <path
     d="m432.44 465.33v-392.08"
     fill="none"
     stroke="#000"
     stroke-dasharray="8, 8"
     stroke-opacity=".35638"
     stroke-width="2"
     id="path34" />
  <g
     id="g969">
    <path
       d="m 34.671126,21.62 13.05367,26.107 h -26.10734 z"
       id="path24"
       inkscape:connector-curvature="0"
       style="fill:#555555;stroke-width:0.93060732" />
    <path
       d="M 728.42,465.32613 702.313,478.3798 V 452.27246 Z"
       id="path26"
       inkscape:connector-curvature="0"
       style="fill:#555555;stroke-width:0.93060732" />
    <path
       fill="none"
       stroke="#555"
       stroke-width="10"
       id="path36"
       d="m34.671 34.671v430.66h680.66" />
  </g>
  <text
     xml:space="preserve"
     style="font-style:normal;font-weight:normal;font-size:24.42621231px;line-height:1.25;font-family:sans-serif;letter-spacing:0px;word-spacing:0px;fill:#555555;fill-opacity:1;stroke:none;stroke-width:0.61065531;"
     x="275.21613"
     y="493.7923"
     id="text997"><tspan
       sodipodi:role="line"
       id="tspan995"
       x="275.21613"
       y="493.7923"
       style="font-size:24.23999977px;stroke-width:0.61065531;fill:#555555;fill-opacity:1;">Amount of data</tspan></text>
  <text
     xml:space="preserve"
     style="font-style:normal;font-weight:normal;font-size:40px;line-height:1.25;font-family:sans-serif;letter-spacing:0px;word-spacing:0px;fill:#555555;fill-opacity:1;stroke:none;"
     x="-344.87961"
     y="19.913349"
     id="text1001"
     transform="rotate(-90)"><tspan
       sodipodi:role="line"
       id="tspan999"
       x="-344.87961"
       y="19.913349"
       style="font-size:24px;fill:#555555;fill-opacity:1;">Performance</tspan></text>
  <path
     style="fill:none;stroke:#868686;stroke-width:2;stroke-linecap:butt;stroke-linejoin:miter;stroke-miterlimit:4;stroke-dasharray:none;stroke-opacity:1"
     d="m 554.54545,372.72728 c 0,0 -255.67996,2.27239 -345.45453,18.18181 C 119.31634,406.81851 34.671,465.331 34.671,465.331 c 0,0 101.79279,-122.71034 180.10172,-146.01282 78.30893,-23.30248 337.50001,-29.54545 337.50001,-29.54545"
     id="path1003"
     inkscape:connector-curvature="0"
     sodipodi:nodetypes="czczc" />
  <path
     style="fill:none;stroke:#004687;stroke-width:2;stroke-linecap:butt;stroke-linejoin:miter;stroke-miterlimit:4;stroke-dasharray:none;stroke-opacity:1"
     d="m 34.671,465.331 c 0,0 97.52582,-164.07867 180.10172,-240.331 C 297.34863,148.74768 554.54545,37.5 554.54545,37.5"
     id="path1005"
     inkscape:connector-curvature="0"
     sodipodi:nodetypes="czc" />
  <text
     xml:space="preserve"
     style="font-style:normal;font-weight:normal;font-size:24.42621231px;line-height:1.25;font-family:sans-serif;letter-spacing:0px;word-spacing:0px;fill:#868686;fill-opacity:1;stroke:none;stroke-width:0.61065531;"
     x="565.78229"
     y="381.76401"
     id="text997-5"><tspan
       sodipodi:role="line"
       x="565.78229"
       y="381.76401"
       style="font-size:24.23999977px;stroke-width:0.61065531;fill:#868686;fill-opacity:1;"
       id="tspan1025">Traditional ML</tspan></text>
  <text
     xml:space="preserve"
     style="font-style:normal;font-weight:normal;font-size:24.42621231px;line-height:1.25;font-family:sans-serif;letter-spacing:0px;word-spacing:0px;fill:#868686;fill-opacity:1;stroke:none;stroke-width:0.61065531;stroke-opacity:1;"
     x="564.1134"
     y="301.08221"
     id="text997-5-2"><tspan
       sodipodi:role="line"
       x="564.1134"
       y="301.08221"
       style="font-size:24.23999977px;stroke-width:0.61065531;stroke:none;stroke-opacity:1;fill:#868686;fill-opacity:1;"
       id="tspan1025-9">Small NN</tspan></text>
  <text
     xml:space="preserve"
     style="font-style:normal;font-weight:normal;font-size:24.42621231px;line-height:1.25;font-family:sans-serif;letter-spacing:0px;word-spacing:0px;fill:#004687;fill-opacity:1;stroke:none;stroke-width:0.61065531;stroke-opacity:1;"
     x="563.33228"
     y="45.400372"
     id="text997-5-2-1"><tspan
       sodipodi:role="line"
       x="563.33228"
       y="45.400372"
       style="font-size:24.23999977px;stroke-width:0.61065531;stroke:none;stroke-opacity:1;fill:#004687;fill-opacity:1;"
       id="tspan1025-9-2">Deep NN</tspan></text>
</svg>
