<?xml version="1.0" encoding="UTF-8" standalone="no"?>
<svg
   xmlns:dc="http://purl.org/dc/elements/1.1/"
   xmlns:cc="http://creativecommons.org/ns#"
   xmlns:rdf="http://www.w3.org/1999/02/22-rdf-syntax-ns#"
   xmlns:svg="http://www.w3.org/2000/svg"
   xmlns="http://www.w3.org/2000/svg"
   xmlns:sodipodi="http://sodipodi.sourceforge.net/DTD/sodipodi-0.dtd"
   xmlns:inkscape="http://www.inkscape.org/namespaces/inkscape"
   width="750"
   height="500"
   version="1.1"
   viewBox="0 0 750.00001 500.00001"
   id="svg56"
   sodipodi:docname="xai-goal.svg"
   inkscape:version="0.92.4 5da689c313, 2019-01-14">
  <metadata
     id="metadata60">
    <rdf:RDF>
      <cc:Work
         rdf:about="">
        <dc:format>image/svg+xml</dc:format>
        <dc:type
           rdf:resource="http://purl.org/dc/dcmitype/StillImage" />
        <dc:title />
      </cc:Work>
    </rdf:RDF>
  </metadata>
  <sodipodi:namedview
     pagecolor="#ffffff"
     bordercolor="#666666"
     borderopacity="1"
     objecttolerance="10"
     gridtolerance="10"
     guidetolerance="10"
     inkscape:pageopacity="0"
     inkscape:pageshadow="2"
     inkscape:window-width="1734"
     inkscape:window-height="1016"
     id="namedview58"
     showgrid="false"
     inkscape:zoom="0.88"
     inkscape:cx="473.84803"
     inkscape:cy="346.5506"
     inkscape:window-x="0"
     inkscape:window-y="27"
     inkscape:window-maximized="0"
     inkscape:current-layer="svg56" />
  <defs
     id="defs20">
    <marker
       id="l"
       overflow="visible"
       orient="auto">
      <path
         transform="scale(.2) translate(7.4 1)"
         d="m-2.5-1c0 2.76-2.24 5-5 5s-5-2.24-5-5 2.24-5 5-5 5 2.24 5 5z"
         fill="#555"
         fill-rule="evenodd"
         stroke="#555"
         stroke-width="1pt"
         id="path2" />
    </marker>
    <marker
       id="k"
       overflow="visible"
       orient="auto">
      <path
         transform="scale(.2) translate(7.4 1)"
         d="m-2.5-1c0 2.76-2.24 5-5 5s-5-2.24-5-5 2.24-5 5-5 5 2.24 5 5z"
         fill="#555"
         fill-rule="evenodd"
         stroke="#555"
         stroke-width="1pt"
         id="path5" />
    </marker>
    <marker
       id="j"
       overflow="visible"
       orient="auto">
      <path
         transform="scale(.4) translate(7.4 1)"
         d="m-2.5-1c0 2.76-2.24 5-5 5s-5-2.24-5-5 2.24-5 5-5 5 2.24 5 5z"
         fill="#555"
         fill-rule="evenodd"
         stroke="#555"
         stroke-width="1pt"
         id="path8" />
    </marker>
    <marker
       id="i"
       overflow="visible"
       orient="auto">
      <path
         transform="scale(.4) translate(7.4 1)"
         d="m-2.5-1c0 2.76-2.24 5-5 5s-5-2.24-5-5 2.24-5 5-5 5 2.24 5 5z"
         fill="#555"
         fill-rule="evenodd"
         stroke="#555"
         stroke-width="1pt"
         id="path11" />
    </marker>
    <marker
       id="g"
       overflow="visible"
       orient="auto">
      <path
         transform="scale(.4) translate(7.4 1)"
         d="m-2.5-1c0 2.76-2.24 5-5 5s-5-2.24-5-5 2.24-5 5-5 5 2.24 5 5z"
         fill="#555"
         fill-rule="evenodd"
         stroke="#555"
         stroke-width="1pt"
         id="path14" />
    </marker>
    <marker
       id="h"
       overflow="visible"
       orient="auto">
      <path
         transform="scale(.2) translate(7.4 1)"
         d="m-2.5-1c0 2.76-2.24 5-5 5s-5-2.24-5-5 2.24-5 5-5 5 2.24 5 5z"
         fill="#555"
         fill-rule="evenodd"
         stroke="#555"
         stroke-width="1pt"
         id="path17" />
    </marker>
  </defs>
  <g
     id="g969">
    <path
       d="m 34.671126,21.62 13.05367,26.107 h -26.10734 z"
       id="path24"
       inkscape:connector-curvature="0"
       style="fill:#555555;stroke-width:0.93060732" />
    <path
       d="M 728.42,465.32613 702.313,478.3798 V 452.27246 Z"
       id="path26"
       inkscape:connector-curvature="0"
       style="fill:#555555;stroke-width:0.93060732" />
    <path
       style="fill:none;stroke:#555555;stroke-width:10"
       inkscape:connector-curvature="0"
       id="path36-3"
       d="m 34.671,34.671 v 430.66 h 680.66" />
  </g>
  <path
     style="fill:none;stroke:#868686;stroke-width:1px;stroke-linecap:butt;stroke-linejoin:miter;stroke-opacity:1"
     d="M 57.854191,72.521811 C 81.960104,344.91863 187.22259,377.86338 361.58869,436.5211"
     id="path918"
     inkscape:connector-curvature="0"
     sodipodi:nodetypes="cc" />
  <path
     style="fill:none;stroke:#004687;stroke-width:4;stroke-linecap:butt;stroke-linejoin:miter;stroke-opacity:1;stroke-miterlimit:4;stroke-dasharray:none"
     d="M 198.47201,41.987655 C 222.57792,250.90557 455.60175,351.34687 557.65012,351.34687"
     id="path920"
     inkscape:connector-curvature="0"
     sodipodi:nodetypes="cc" />
  <text
     xml:space="preserve"
     style="font-style:normal;font-weight:normal;font-size:26.66666603px;line-height:1.25;font-family:sans-serif;letter-spacing:0px;word-spacing:0px;fill:#868686;fill-opacity:1;stroke:none"
     x="373.86029"
     y="441.92719"
     id="text924"><tspan
       sodipodi:role="line"
       id="tspan922"
       x="373.86029"
       y="441.92719">Today</tspan></text>
  <text
     xml:space="preserve"
     style="font-style:normal;font-weight:normal;font-size:26.66666603px;line-height:1.25;font-family:sans-serif;letter-spacing:0px;word-spacing:0px;fill:#004687;fill-opacity:1;stroke:none"
     x="573.27368"
     y="362.37766"
     id="text928"><tspan
       sodipodi:role="line"
       id="tspan926"
       x="573.27368"
       y="362.37766">Tomorrow</tspan></text>
  <text
     xml:space="preserve"
     style="font-style:normal;font-weight:normal;font-size:26.66666603px;line-height:1.25;font-family:sans-serif;letter-spacing:0px;word-spacing:0px;fill:#555555;fill-opacity:1;stroke:none;"
     x="280.87659"
     y="492.89322"
     id="text924-3"><tspan
       sodipodi:role="line"
       id="tspan922-6"
       x="280.87659"
       y="492.89322">Explainability</tspan></text>
  <text
     xml:space="preserve"
     style="font-style:normal;font-weight:normal;font-size:26.66666603px;line-height:1.25;font-family:sans-serif;letter-spacing:0px;word-spacing:0px;fill:#555555;fill-opacity:1;stroke:none;"
     x="-391.18314"
     y="21.522749"
     id="text924-7"
     transform="rotate(-90)"><tspan
       sodipodi:role="line"
       id="tspan922-5"
       x="-391.18314"
       y="21.522749">Learning performance</tspan></text>
</svg>
