<?xml version="1.0" encoding="UTF-8" standalone="no"?>
<svg
   xmlns:dc="http://purl.org/dc/elements/1.1/"
   xmlns:cc="http://creativecommons.org/ns#"
   xmlns:rdf="http://www.w3.org/1999/02/22-rdf-syntax-ns#"
   xmlns:svg="http://www.w3.org/2000/svg"
   xmlns="http://www.w3.org/2000/svg"
   xmlns:sodipodi="http://sodipodi.sourceforge.net/DTD/sodipodi-0.dtd"
   xmlns:inkscape="http://www.inkscape.org/namespaces/inkscape"
   id="svg53"
   xml:space="preserve"
   viewBox="0 0 28206.229 9506.189"
   version="1.1"
   height="95.06189mm"
   width="282.06229mm"
   sodipodi:docname="xai-problem.svg"
   inkscape:version="0.92.4 5da689c313, 2019-01-14"
   style="clip-rule:evenodd;fill-rule:evenodd;image-rendering:optimizeQuality;shape-rendering:geometricPrecision;text-rendering:geometricPrecision"><sodipodi:namedview
   pagecolor="#ffffff"
   bordercolor="#666666"
   borderopacity="1"
   objecttolerance="10"
   gridtolerance="10"
   guidetolerance="10"
   inkscape:pageopacity="0"
   inkscape:pageshadow="2"
   inkscape:window-width="1318"
   inkscape:window-height="854"
   id="namedview18"
   showgrid="false"
   inkscape:zoom="0.58796296"
   inkscape:cx="599.04101"
   inkscape:cy="266.05055"
   inkscape:window-x="602"
   inkscape:window-y="27"
   inkscape:window-maximized="0"
   inkscape:current-layer="svg53"
   fit-margin-top="0"
   fit-margin-left="0"
   fit-margin-right="0"
   fit-margin-bottom="0" /><metadata
   id="metadata57"><rdf:RDF><cc:Work
       rdf:about=""><dc:format>image/svg+xml</dc:format><dc:type
         rdf:resource="http://purl.org/dc/dcmitype/StillImage" /><dc:title></dc:title></cc:Work></rdf:RDF></metadata>
 <defs
   id="defs9"><marker
   inkscape:stockid="Arrow1Mend"
   orient="auto"
   refY="0"
   refX="0"
   id="Arrow1Mend"
   style="overflow:visible"
   inkscape:isstock="true"><path
     id="path4735"
     d="M 0,0 5,-5 -12.5,0 5,5 Z"
     style="fill:#000000;fill-opacity:1;fill-rule:evenodd;stroke:#000000;stroke-width:1.00000003pt;stroke-opacity:1"
     transform="matrix(-0.4,0,0,-0.4,-4,0)"
     inkscape:connector-curvature="0" /></marker><marker
   inkscape:stockid="Arrow1Send"
   orient="auto"
   refY="0"
   refX="0"
   id="Arrow1Send"
   style="overflow:visible"
   inkscape:isstock="true"><path
     id="path4741"
     d="M 0,0 5,-5 -12.5,0 5,5 Z"
     style="fill:#000000;fill-opacity:1;fill-rule:evenodd;stroke:#000000;stroke-width:1.00000003pt;stroke-opacity:1"
     transform="matrix(-0.2,0,0,-0.2,-1.2,0)"
     inkscape:connector-curvature="0" /></marker><marker
   inkscape:stockid="Arrow1Lend"
   orient="auto"
   refY="0"
   refX="0"
   id="Arrow1Lend"
   style="overflow:visible"
   inkscape:isstock="true"><path
     id="path4729"
     d="M 0,0 5,-5 -12.5,0 5,5 Z"
     style="fill:#000000;fill-opacity:1;fill-rule:evenodd;stroke:#000000;stroke-width:1.00000003pt;stroke-opacity:1"
     transform="matrix(-0.8,0,0,-0.8,-10,0)"
     inkscape:connector-curvature="0" /></marker>
  <style
   id="style2"
   type="text/css">
    .fil2 {fill:#1A1617}
    .fil6 {fill:#383032}
    .fil3 {fill:#3D3D3D}
    .fil5 {fill:#E6C6AA}
    .fil1 {fill:#E6E6E6}
    .fil8 {fill:#F23034}
    .fil4 {fill:#F6D5B8}
    .fil7 {fill:white}
    .fil0 {fill:url(#a)}
  </style>
  <linearGradient
   gradientUnits="userSpaceOnUse"
   y2="17338"
   y1="3765.8"
   x2="15858"
   x1="15728"
   id="a">
   <stop
   id="stop4"
   offset="0"
   stop-color="#fff" />
   <stop
   id="stop6"
   offset="1"
   stop-color="#EB9494" />
  </linearGradient>
 <marker
   inkscape:stockid="Arrow1Mend"
   orient="auto"
   refY="0"
   refX="0"
   id="Arrow1Mend-3"
   style="overflow:visible"
   inkscape:isstock="true"><path
     inkscape:connector-curvature="0"
     id="path4735-6"
     d="M 0,0 5,-5 -12.5,0 5,5 Z"
     style="fill:#000000;fill-opacity:1;fill-rule:evenodd;stroke:#000000;stroke-width:1.00000003pt;stroke-opacity:1"
     transform="matrix(-0.4,0,0,-0.4,-4,0)" /></marker></defs>
  
   
    
    
    
    
    
    
    
    <g
   id="g4720"
   transform="matrix(0.62295082,0,0,0.62295082,-2470.623,-1082.7176)"><circle
     class="fil1"
     cx="9456"
     cy="7965"
     r="5490"
     id="circle13"
     style="fill:#e6e6e6" /><path
     class="fil2"
     d="m 7759,8867 c -19,15 -47,21 -119,46 -378,131 -754,286 -1128,469 -236,115 -213,73 -315,312 -263,612 -513,1252 -697,1867 619,667 1405,1177 2291,1464 333,90 679,164 1032,225 190,22 384,35 580,37 h 121 c 191,-3 379,-15 565,-37 352,-61 699,-135 1032,-225 886,-287 1671,-797 2291,-1464 -184,-615 -434,-1255 -697,-1867 -102,-239 -79,-197 -316,-312 -373,-183 -749,-338 -1127,-469 -51,-18 -79,-26 -99,-34 l -5,-12 c -72,-124 -157,-239 -254,-347 459,32 832,-82 1066,-365 226,-275 239,-479 251,-812 23,-653 -27,-1355 -207,-2009 -175,-639 -473,-1232 -946,-1688 -453,-436 -982,-780 -1622,-780 -451,0 -842,83 -1118,520 -272,-35 -420,86 -601,260 -473,456 -771,1049 -946,1688 -180,654 -230,1356 -207,2009 12,333 24,537 251,812 250,303 660,412 1163,357 h 6 c -93,106 -174,225 -245,355 z"
     id="path15"
     inkscape:connector-curvature="0"
     style="fill:#1a1617" /><path
     class="fil3"
     d="m 7998,8513 c 99,-106 217,-205 349,-299 l 69,-320 c -239,-278 -419,-650 -509,-1075 -181,4 -372,-207 -446,-509 -60,-240 -64,-434 3,-557 114,-209 318,-79 399,76 75,-634 344,-1178 721,-1512 273,308 596,563 1021,610 813,90 1243,379 1439,859 92,-134 269,-222 373,-33 66,123 62,317 3,557 -70,284 -243,488 -414,507 -88,411 -258,772 -485,1047 l -5,30 73,337 c 114,77 228,174 320,291 461,33 836,-81 1071,-365 226,-275 239,-479 251,-812 23,-653 -27,-1356 -207,-2010 -175,-639 -473,-1232 -946,-1687 -453,-436 -982,-781 -1622,-781 -451,0 -842,84 -1118,520 -272,-35 -420,87 -601,261 -473,455 -771,1048 -946,1687 -180,654 -230,1357 -207,2010 12,333 24,537 251,812 250,303 660,412 1163,356 z"
     id="path17"
     inkscape:connector-curvature="0"
     style="fill:#3d3d3d" /><path
     class="fil4"
     d="m 11044,5786 c 92,-134 269,-222 373,-33 66,123 62,317 3,557 -70,284 -243,488 -414,507 -88,411 -258,772 -485,1047 l -5,30 70,321 -6,-1 c 6,19 12,37 17,55 l 3,11 c 24,88 47,181 67,280 139,797 -146,1543 -482,2316 -186,198 -465,351 -719,340 -258,11 -543,-147 -728,-351 -313,-719 -580,-1416 -500,-2153 24,-155 58,-301 95,-432 l 14,-66 69,-320 c -239,-278 -419,-650 -509,-1075 -181,4 -372,-207 -446,-509 -60,-240 -64,-434 3,-557 114,-209 318,-79 399,76 75,-634 344,-1178 721,-1512 273,308 596,563 1021,610 813,90 1243,379 1439,859 z"
     id="path19"
     inkscape:connector-curvature="0"
     style="fill:#f6d5b8" /><path
     class="fil5"
     d="m 7893,6751 c -36,-166 -55,-334 -59,-503 -3,-109 1,-217 11,-326 -9,-12 -18,-24 -29,-36 -34,-37 -96,-85 -152,-81 -42,4 -69,38 -86,70 -71,128 -24,343 14,474 33,112 91,228 176,314 33,34 77,68 125,88 z m 3116,0 c 36,-166 55,-334 59,-503 3,-109 -1,-217 -11,-326 9,-12 18,-24 29,-36 34,-37 96,-85 152,-81 42,4 69,38 87,70 70,128 23,343 -15,474 -33,112 -91,228 -176,314 -33,34 -76,68 -125,88 z"
     id="path21"
     inkscape:connector-curvature="0"
     style="fill:#e6c6aa" /><path
     class="fil5"
     d="m 8416,7894 z m 2170,321 -70,-321 5,-30 c -284,344 -657,553 -1065,553 -396,0 -759,-197 -1040,-523 l -20,91 c 117,158 251,283 400,381 201,131 428,213 676,258 257,47 536,54 829,36 76,-5 64,-18 84,57 243,953 -171,2507 -1638,2158 185,199 465,352 719,341 254,11 533,-142 719,-340 364,-838 703,-1746 401,-2661 z"
     id="path23"
     inkscape:connector-curvature="0"
     style="fill:#e6c6aa" /><path
     class="fil5"
     d="m 11044,5786 c -196,-480 -626,-769 -1439,-859 -425,-47 -748,-302 -1021,-610 -377,334 -646,878 -721,1511 217,-448 388,-962 710,-1278 418,989 1839,369 2471,1236 z"
     id="path25"
     inkscape:connector-curvature="0"
     style="fill:#e6c6aa" /><path
     class="fil6"
     d="m 11168,8867 c 50,109 93,221 127,336 34,115 59,234 74,356 4,34 9,53 8,71 0,17 -7,34 -26,62 -38,58 -83,111 -136,162 -53,50 -113,97 -179,142 l 238,254 239,254 -1025,1308 -1024,1308 -1025,-1308 -1025,-1308 239,-254 238,-254 c -66,-45 -126,-92 -179,-142 -52,-51 -98,-104 -136,-162 -19,-28 -26,-45 -26,-62 -1,-18 4,-37 8,-71 15,-122 40,-241 74,-356 34,-115 77,-227 127,-336 74,-135 158,-258 256,-368 97,-110 207,-205 332,-285 -263,796 -67,1534 236,2284 303,751 714,1515 881,2365 166,-850 578,-1614 883,-2364 305,-751 502,-1488 239,-2284 122,94 231,194 328,303 97,108 182,224 254,349 z"
     id="path27"
     inkscape:connector-curvature="0"
     style="fill:#383032" /><path
     class="fil7"
     d="m 9464,12863 c 138,-708 446,-1356 721,-1987 -186,198 -465,351 -719,340 -254,11 -534,-142 -719,-341 -3,-3 -6,-7 -9,-10 275,634 586,1286 726,1998 z"
     id="path29"
     inkscape:connector-curvature="0"
     style="fill:#ffffff" /></g>
   
   
   
   
   
   
   
   
   
   
   
<rect
   style="opacity:1;fill:#004687;fill-opacity:1;fill-rule:nonzero;stroke:none;stroke-width:45.41137695;stroke-miterlimit:4;stroke-dasharray:none;stroke-opacity:1"
   id="rect4722"
   width="6840"
   height="3825"
   x="11424"
   y="1950.9094" /><path
   style="fill:none;stroke:#000000;stroke-width:116.41666412;stroke-linecap:butt;stroke-linejoin:miter;stroke-miterlimit:4;stroke-dasharray:none;stroke-opacity:1;marker-end:url(#Arrow1Mend)"
   d="M 8363.9997,3863.4097 H 11289"
   id="path4724"
   inkscape:connector-curvature="0" /><rect
   style="opacity:1;fill:none;fill-opacity:1;fill-rule:nonzero;stroke:#004687;stroke-width:132.29167175;stroke-miterlimit:4;stroke-dasharray:none;stroke-opacity:1"
   id="rect4722-7"
   width="6840.001"
   height="3825.0002"
   x="21234"
   y="1950.9089" /><path
   style="fill:none;stroke:#000000;stroke-width:116.41667938;stroke-linecap:butt;stroke-linejoin:miter;stroke-miterlimit:4;stroke-dasharray:none;stroke-opacity:1;marker-end:url(#Arrow1Mend-3)"
   d="M 18173.999,3863.4097 H 21099"
   id="path4724-5"
   inkscape:connector-curvature="0" /><text
   xml:space="preserve"
   style="font-style:normal;font-variant:normal;font-weight:bold;font-stretch:normal;font-size:1058.33337402px;line-height:1.25;font-family:sans-serif;-inkscape-font-specification:'sans-serif Bold';letter-spacing:0px;word-spacing:0px;fill:#004687;fill-opacity:1;stroke:none;stroke-width:26.45833206"
   x="23179.154"
   y="4248.6567"
   id="text5206"><tspan
     sodipodi:role="line"
     x="23179.154"
     y="4248.6567"
     style="font-style:normal;font-variant:normal;font-weight:bold;font-stretch:normal;font-family:sans-serif;-inkscape-font-specification:'sans-serif Bold';fill:#004687;fill-opacity:1;stroke-width:26.45833206"
     id="tspan5208">55 %</tspan></text>
<text
   xml:space="preserve"
   style="font-style:normal;font-variant:normal;font-weight:bold;font-stretch:normal;font-size:1058.33349609px;line-height:1.25;font-family:sans-serif;-inkscape-font-specification:'sans-serif Bold';letter-spacing:0px;word-spacing:0px;fill:#ffffff;fill-opacity:1;stroke:none;stroke-width:26.45833588"
   x="13010.52"
   y="4257.9585"
   id="text5206-3"><tspan
     sodipodi:role="line"
     x="13010.52"
     y="4257.9585"
     style="font-style:normal;font-variant:normal;font-weight:bold;font-stretch:normal;font-family:sans-serif;-inkscape-font-specification:'sans-serif Bold';fill:#ffffff;stroke-width:26.45833588"
     id="tspan5208-5">model</tspan></text>
<g
   id="g5292"
   transform="translate(-802.78956,-6155.9143)"><path
     id="path2"
     d="m 24525.849,12688.369 h 1861.882 a 238.47502,238.47502 0 0 1 238.475,238.476 v 1701.329 a 238.47502,238.47502 0 0 1 -238.475,238.475 h -1861.882 a 238.47502,238.47502 0 0 1 -238.475,-238.475 v -1701.329 a 238.47502,238.47502 0 0 1 238.475,-238.476"
     style="fill:#ffffff;fill-rule:evenodd;stroke:#c1022d;stroke-width:361.89459229;stroke-linecap:round;stroke-linejoin:round"
     inkscape:connector-curvature="0" /><g
     id="g14"
     transform="matrix(40.183399,0,0,-40.183399,10972.484,33187.452)"
     style="fill:#c1022d"><path
       id="path4"
       d="m 358.34,463.49 c -1.5517,0.13437 -2.8862,1.5173 -3.1442,3.3728 l -0.28583,2.1152 c -0.0574,0.10167 -0.12104,0.19679 -0.1715,0.30489 l -5.5261,11.853 c -0.22363,0.47909 -0.35442,0.98155 -0.40017,1.4673 h -2.9917 c -1.9589,0 -3.5443,1.5663 -3.5443,3.5253 v 11.186 c 0,1.9589 1.5854,3.5443 3.5443,3.5443 h 5.2022 c 1.1908,1.0775 2.7573,1.734 4.4971,1.734 h 7.0887 c 3.7219,0 6.7075,-2.9857 6.7075,-6.7076 v -11.529 c 0,-3.7219 -2.9857,-6.7076 -6.7075,-6.7076 h -2.1914 l 1.3529,-9.8326 c 0.29477,-2.1206 -0.92096,-4.0379 -2.744,-4.3066 -0.22788,-0.0336 -0.46434,-0.0382 -0.686,-0.019 z"
       inkscape:connector-curvature="0" /><path
       id="path6"
       d="m 480.47,-376.28 h 0.43435 a 2.8259,2.8259 0 0 1 2.8259,2.8259 v 9.5649 a 2.8259,2.8259 0 0 1 -2.8259,2.8259 H 480.47 a 2.8259,2.8259 0 0 1 -2.8259,-2.8259 v -9.5649 a 2.8259,2.8259 0 0 1 2.8259,-2.8259"
       transform="rotate(90)"
       inkscape:connector-curvature="0"
       style="stroke:#ffffff;stroke-width:1.08029997" /><path
       id="path8"
       d="m 486.94,-378.63 a 3.0431,3.0431 0 0 1 3.0431,3.0431 v 11.477 a 3.0431,3.0431 0 0 1 -3.0431,3.0431 3.0431,3.0431 0 0 1 -3.0431,-3.0431 v -11.477 a 3.0431,3.0431 0 0 1 3.0431,-3.0431"
       transform="rotate(90)"
       inkscape:connector-curvature="0"
       style="stroke:#ffffff;stroke-width:1.08029997" /><path
       id="path10"
       d="m 493.2,-376.69 a 3.0431,3.0431 0 0 1 3.0431,3.0431 v 9.5327 a 3.0431,3.0431 0 0 1 -3.0431,3.0431 3.0431,3.0431 0 0 1 -3.0431,-3.0431 v -9.5327 A 3.0431,3.0431 0 0 1 493.2,-376.69"
       transform="rotate(90)"
       inkscape:connector-curvature="0"
       style="stroke:#ffffff;stroke-width:1.08029997" /><path
       id="path12"
       d="m 499.46,-374.61 a 3.0431,3.0431 0 0 1 3.0431,3.0431 v 7.4547 a 3.0431,3.0431 0 0 1 -3.0431,3.0431 3.0431,3.0431 0 0 1 -3.0431,-3.0431 v -7.4547 a 3.0431,3.0431 0 0 1 3.0431,-3.0431"
       transform="rotate(90)"
       inkscape:connector-curvature="0"
       style="stroke:#ffffff;stroke-width:1.08029997" /></g></g><text
   xml:space="preserve"
   style="font-style:normal;font-variant:normal;font-weight:bold;font-stretch:normal;font-size:613.50671387px;line-height:1.25;font-family:sans-serif;-inkscape-font-specification:'sans-serif Bold';text-align:center;letter-spacing:0px;word-spacing:0px;text-anchor:middle;fill:#666666;fill-opacity:1;stroke:none;stroke-width:15.33766556"
   x="24642.768"
   y="466.12131"
   id="text5250"><tspan
     sodipodi:role="line"
     id="tspan5248"
     x="24642.768"
     y="466.12131"
     style="font-style:normal;font-variant:normal;font-weight:bold;font-stretch:normal;font-family:sans-serif;-inkscape-font-specification:'sans-serif Bold';text-align:center;text-anchor:middle;fill:#666666;stroke-width:15.33766556">Chances of</tspan><tspan
     sodipodi:role="line"
     x="24642.768"
     y="1233.0046"
     style="font-style:normal;font-variant:normal;font-weight:bold;font-stretch:normal;font-family:sans-serif;-inkscape-font-specification:'sans-serif Bold';text-align:center;text-anchor:middle;fill:#666666;stroke-width:15.33766556"
     id="tspan5260">repayment problems</tspan></text>
<flowRoot
   xml:space="preserve"
   id="flowRoot5252"
   style="font-style:normal;font-weight:normal;font-size:40px;line-height:1.25;font-family:sans-serif;letter-spacing:0px;word-spacing:0px;fill:#000000;fill-opacity:1;stroke:none"
   transform="matrix(26.458333,0,0,26.458333,-726.00005,-6155.9143)"><flowRegion
     id="flowRegion5254"><rect
       id="rect5256"
       width="8.5039368"
       height="51.023621"
       x="1151.4331"
       y="230.74016" /></flowRegion><flowPara
     id="flowPara5258"></flowPara></flowRoot><text
   xml:space="preserve"
   style="font-style:normal;font-variant:normal;font-weight:bold;font-stretch:normal;font-size:613.5067749px;line-height:1.25;font-family:sans-serif;-inkscape-font-specification:'sans-serif Bold';text-align:center;letter-spacing:0px;word-spacing:0px;text-anchor:middle;fill:#666666;fill-opacity:1;stroke:none;stroke-width:15.33766747"
   x="24652.203"
   y="9497.502"
   id="text5250-6"><tspan
     sodipodi:role="line"
     x="24652.203"
     y="9497.502"
     style="font-style:normal;font-variant:normal;font-weight:bold;font-stretch:normal;font-family:sans-serif;-inkscape-font-specification:'sans-serif Bold';text-align:center;text-anchor:middle;fill:#666666;stroke-width:15.33766747"
     id="tspan5260-9">no loan</tspan></text>
</svg>